<svg width="300" height="300" xmlns="http://www.w3.org/2000/svg" baseProfile="full" version="1.1" style="fill:none;stroke:black;stroke-width:28px;">
  <path stroke-linecap="butt" d="M60,60 l60,0 a60,60 0 0,1 60,60 M240,60 l0,60 a-60,60 0 0,1 -60,60 M240,240 l-60,0 a-60,-60 0 0,1 -60,-60 M60,240 l0,-60 a60,-60 0 0,1 60,-60 M90,240 l0,-60 a30,-30 0 0,1 30,-30 M60,90 l60,0 a30,30 0 0,1 30,30 M210,60 l0,60 a-30,30 0 0,1 -30,30 M240,210 l-60,0 a-30,-30 0 0,1 -30,-30 M45,60 l15,0 M45,90 l15,0 M210,45 l0,15 M240,45 l0,15 M255,210 l-15,0 M255,240 l-15,0 M90,255 l0,-15 M60,255 l0,-15 "></path>
  <path stroke-linecap="round" d="M120,60 a60,60 0 0,1 60,60 M240,120 a-60,60 0 0,1 -60,60 M180,240 a-60,-60 0 0,1 -60,-60 M60,180 a60,-60 0 0,1 60,-60 M120,90 a30,30 0 0,1 30,30 M210,120 a-30,30 0 0,1 -30,30 M180,210 a-30,-30 0 0,1 -30,-30 M90,180 a30,-30 0 0,1 30,-30 "></path>
</svg>